<svg width="24" height="29" viewBox="0 0 24 29" fill="none" xmlns="http://www.w3.org/2000/svg">
<path d="M22.6811 4.48999H16.1162C15.4888 4.48999 14.9804 4.9984 14.9804 5.62585C14.9804 6.25315 15.4888 6.76172 16.1162 6.76172H21.5454V26.036H2.27173V6.76172H7.70025C8.3277 6.76172 8.83611 6.2533 8.83611 5.62585C8.83611 4.9984 8.3277 4.48999 7.70025 4.48999H1.13586C0.508564 4.48999 0 4.9984 0 5.62585V27.1718C0 27.7993 0.508564 28.3077 1.13586 28.3077H22.6812C23.3087 28.3077 23.8171 27.7993 23.8171 27.1718V5.62585C23.8169 4.99855 23.3085 4.48999 22.6811 4.48999Z" fill="white"/>
<path d="M8.57166 15.3672C8.12807 14.9236 7.40884 14.9234 6.9654 15.367C6.52165 15.8108 6.52165 16.5298 6.96524 16.9734L11.3404 21.3488C11.5535 21.5619 11.8423 21.6815 12.1437 21.6815C12.445 21.6815 12.7338 21.5619 12.9469 21.3489L17.3224 16.9736C17.7661 16.53 17.7661 15.8108 17.3225 15.3673C16.8789 14.9237 16.1597 14.9236 15.7162 15.3672L13.2797 17.8035V1.13586C13.2797 0.508412 12.7713 0 12.1439 0C11.5164 0 11.008 0.508412 11.008 1.13586V17.8034L8.57166 15.3672Z" fill="white"/>
</svg>
