<svg width="25" height="25" viewBox="0 0 25 25" fill="none" xmlns="http://www.w3.org/2000/svg">
<path d="M10.4167 0C16.1696 0 20.8333 4.66372 20.8333 10.4167C20.8333 12.9169 19.9162 15.1805 18.4479 16.9758L25 23.527L23.527 25L16.9748 18.4486C15.1796 19.9164 12.9164 20.8333 10.4167 20.8333C4.66372 20.8333 0 16.1696 0 10.4167C0 4.66372 4.66372 0 10.4167 0ZM10.4167 18.75C15.0117 18.75 18.75 15.0117 18.75 10.4167C18.75 5.82161 15.0117 2.08333 10.4167 2.08333C5.82161 2.08333 2.08333 5.82161 2.08333 10.4167C2.08333 15.0117 5.82161 18.75 10.4167 18.75Z" fill="#1D1D1B"/>
</svg>
