<svg width="11" height="9" viewBox="0 0 11 9" fill="none" xmlns="http://www.w3.org/2000/svg">
<path fill-rule="evenodd" clip-rule="evenodd" d="M4.85355 0.853552C5.04882 0.658292 5.04882 0.341713 4.85355 0.146453C4.65829 -0.0488175 4.34171 -0.0488175 4.14645 0.146453L0.146453 4.14645C-0.0488175 4.34171 -0.0488175 4.65829 0.146453 4.85355L4.14645 8.8536C4.34171 9.0488 4.65829 9.0488 4.85355 8.8536C5.04882 8.6583 5.04882 8.3417 4.85355 8.1464L1.20711 4.5L4.85355 0.853552ZM10.8536 0.853552C11.0488 0.658292 11.0488 0.341713 10.8536 0.146453C10.6583 -0.0488175 10.3417 -0.0488175 10.1464 0.146453L6.14645 4.14645C5.95118 4.34171 5.95118 4.65829 6.14645 4.85355L10.1464 8.8536C10.3417 9.0488 10.6583 9.0488 10.8536 8.8536C11.0488 8.6583 11.0488 8.3417 10.8536 8.1464L7.20711 4.5L10.8536 0.853552Z" fill="black"/>
</svg>
