<svg width="11" height="9" viewBox="0 0 11 9" fill="none" xmlns="http://www.w3.org/2000/svg">
<path fill-rule="evenodd" clip-rule="evenodd" d="M6.14645 8.14645C5.95118 8.34171 5.95118 8.65829 6.14645 8.85355C6.34171 9.04882 6.65829 9.04882 6.85355 8.85355L10.8535 4.85355C11.0488 4.65829 11.0488 4.34171 10.8535 4.14645L6.85355 0.146398C6.65829 -0.0488024 6.34171 -0.0488024 6.14645 0.146398C5.95118 0.341698 5.95118 0.658297 6.14645 0.853597L9.79289 4.5L6.14645 8.14645ZM0.146398 8.14645C-0.0488024 8.34171 -0.0488024 8.65829 0.146398 8.85355C0.341698 9.04882 0.658297 9.04882 0.853597 8.85355L4.85355 4.85355C5.04882 4.65829 5.04882 4.34171 4.85355 4.14645L0.853597 0.146398C0.658297 -0.0488024 0.341698 -0.0488024 0.146398 0.146398C-0.0488024 0.341698 -0.0488024 0.658297 0.146398 0.853597L3.79289 4.5L0.146398 8.14645Z" fill="black"/>
</svg>
